<?xml version="1.0" encoding="iso-8859-1"?>
<!-- Uploaded to: SVG Repo, www.svgrepo.com, Generator: SVG Repo Mixer Tools -->
<svg fill="#000000" height="800px" width="800px" version="1.1" id="Layer_1" xmlns="http://www.w3.org/2000/svg" xmlns:xlink="http://www.w3.org/1999/xlink" 
	 viewBox="0 0 512 512" xml:space="preserve">
<g>
	<g>
		<path d="M206.079,96.357L131.096,3.356c-3.612-4.479-10.441-4.47-14.044,0L42.068,96.357c-4.748,5.888-0.544,14.681,7.022,14.681
			h149.966C206.619,111.039,210.829,102.249,206.079,96.357z"/>
	</g>
</g>
<g>
	<g>
		<path d="M459.611,445.772c-6.808,0-12.327,5.519-12.327,12.327v2.202c-34.355-0.526-59.803-18.175-79.976-55.454
			c-31.616-58.429-38.642-143.469-54.45-182.592c-22.72-56.227-66.359-81.188-116.175-77.397v-0.724H51.462v98.654
			c0,5.935,4.811,10.747,10.747,10.747H72.51V487.2c-6.314,0.535-11.275,5.82-11.275,12.273c0,6.807,5.52,12.326,12.327,12.326
			h22.549c6.807,0,12.327-5.519,12.327-12.326c0-6.452-4.961-11.738-11.275-12.273v-45.637h55.625V487.2
			c-6.314,0.535-11.275,5.82-11.275,12.273c0,6.807,5.52,12.326,12.327,12.326h22.549c6.807,0,12.327-5.519,12.327-12.326
			c0-6.452-4.961-11.738-11.275-12.273V253.533h8.497c5.935,0,10.747-4.811,10.747-10.747v-46.088
			c33.986-4.386,55.611,13.363,68.347,44.882c13.059,32.312,21.277,121.965,56.909,187.816
			c29.34,54.221,69.809,78.222,125.345,82.489V512h12.327c6.807,0,12.327-5.519,12.327-12.327v-41.575
			C471.938,451.29,466.419,445.772,459.611,445.772z M152.788,412.19H97.163v-33.319h55.625V412.19z M152.788,349.5h-0.001H97.163
			v-33.676h55.625V349.5z M152.788,286.451h-0.001H97.163v-32.919h55.625V286.451z"/>
	</g>
</g>
</svg>