<?xml version="1.0" encoding="iso-8859-1"?>
<!-- Uploaded to: SVG Repo, www.svgrepo.com, Generator: SVG Repo Mixer Tools -->
<svg fill="#000000" height="800px" width="800px" version="1.1" id="Layer_1" xmlns="http://www.w3.org/2000/svg" xmlns:xlink="http://www.w3.org/1999/xlink" 
	 viewBox="0 0 512 512" xml:space="preserve">
<g>
	<g>
		<path d="M84.031,260.081l-3.237-0.854l41.097-155.829H87.267L48.422,250.689l-3.237-0.854
			c-8.947-2.362-18.097,2.978-20.454,11.917c-2.357,8.94,2.977,18.097,11.917,20.454c35.846,9.453,40.041,10.803,43.126,10.803
			c7.416,0,14.195-4.967,16.174-12.475C98.305,271.595,92.971,262.438,84.031,260.081z"/>
	</g>
</g>
<g>
	<g>
		<path d="M187.216,261.683h-3.348V103.398H150.39v158.286h-3.348c-9.244,0-16.739,7.495-16.739,16.739
			c0,9.244,7.495,16.739,16.739,16.739h40.173c9.244,0,16.739-7.495,16.739-16.739C203.954,269.178,196.46,261.683,187.216,261.683z
			"/>
	</g>
</g>
<g>
	<g>
		<path d="M430.911,36.267h-0.041H296.503C294.279,15.873,277.006,0,256.02,0c-20.986,0-38.258,15.873-40.483,36.267H81.131h-0.041
			c-9.244,0-16.739,7.495-16.739,16.739c0,9.143,7.376,16.739,16.78,16.739h158.152v288.443h-4.286
			c-6.889,0-12.473,5.584-12.473,12.473v107.862h-2.77c-9.244,0-16.739,7.495-16.739,16.739c0,9.244,7.495,16.739,16.739,16.739
			h72.535c9.244,0,16.739-7.495,16.739-16.739c0-9.244-7.495-16.739-16.74-16.739h-2.81V370.661c0-6.889-5.584-12.473-12.473-12.473
			h-4.245V69.745c0,0,151.648,0,158.152,0c9.244,0,16.739-7.495,16.739-16.739S440.156,36.267,430.911,36.267z"/>
	</g>
</g>
<g>
	<g>
		<path d="M487.269,261.753c-2.357-8.938-11.51-14.277-20.454-11.917l-3.237,0.854l-38.845-147.291H390.11l41.097,155.829
			l-3.236,0.854c-8.94,2.357-14.274,11.514-11.917,20.454c1.98,7.509,8.759,12.475,16.174,12.475c2.959,0,0.363,0.475,43.125-10.803
			C484.292,279.849,489.627,270.691,487.269,261.753z"/>
	</g>
</g>
<g>
	<g>
		<path d="M364.957,261.683h-3.348V103.398h-33.478v158.286h-3.348c-9.244,0-16.739,7.495-16.739,16.739
			c0,9.244,7.495,16.739,16.739,16.739h40.173c9.244,0,16.739-7.495,16.739-16.739C381.696,269.178,374.201,261.683,364.957,261.683
			z"/>
	</g>
</g>
</svg>