<?xml version="1.0" encoding="iso-8859-1"?>
<!-- Uploaded to: SVG Repo, www.svgrepo.com, Generator: SVG Repo Mixer Tools -->
<svg fill="#000000" height="800px" width="800px" version="1.1" id="Layer_1" xmlns="http://www.w3.org/2000/svg" xmlns:xlink="http://www.w3.org/1999/xlink" 
	 viewBox="0 0 512.004 512.004" xml:space="preserve">
<g>
	<g>
		<path d="M240.22,396.498h-4.676c-7.042,0-12.753,5.711-12.753,12.753s5.711,12.753,12.753,12.753h4.676
			c7.042,0,12.753-5.711,12.753-12.753S247.264,396.498,240.22,396.498z"/>
	</g>
</g>
<g>
	<g>
		<path d="M397.558,141.543c0-20.904-10.777-39.1-26.516-47.65c5.079-17.163-0.163-37.645-14.943-52.436
			c-14.788-14.788-35.276-20.033-52.445-14.948C295.11,10.775,276.915,0,256.002,0c-20.918,0-39.117,10.781-47.66,26.509
			c-17.169-5.083-37.654,0.164-52.443,14.953c-14.777,14.788-20.019,35.27-14.939,52.433c-15.736,8.548-26.514,26.744-26.514,47.648
			c0,20.908,10.777,39.109,26.516,47.661c-5.082,17.163,0.162,37.645,14.942,52.438c11.117,11.115,25.452,16.844,39.179,16.844
			c4.535,0,9.002-0.634,13.265-1.896c6.75,12.43,19.522,21.766,34.901,25.138v67.687h-71.518c-3.714,0-7.242,1.62-9.664,4.433
			c-2.423,2.815-3.498,6.545-2.947,10.216l4.875,32.436h-20.295c-7.042,0-12.753,5.711-12.753,12.753s5.711,12.753,12.753,12.753
			h24.13l11.898,79.14c0.937,6.242,6.3,10.858,12.611,10.858h127.324c6.31,0,11.673-4.615,12.611-10.858l11.898-79.14h24.13
			c7.042,0,12.753-5.711,12.753-12.753s-5.711-12.753-12.753-12.753h-20.295l4.875-32.436c0.552-3.672-0.523-7.402-2.947-10.216
			c-2.422-2.813-5.95-4.433-9.664-4.433h-71.518v-67.687c15.384-3.373,28.158-12.712,34.907-25.138
			c4.262,1.261,8.727,1.895,13.26,1.895c13.727,0,28.065-5.729,39.183-16.846c14.777-14.789,20.019-35.271,14.939-52.433
			C386.781,180.654,397.558,162.453,397.558,141.543z M173.94,59.493c8.658-8.66,20.875-11.55,29.478-7.639
			c0.955,11.211,4.61,29.456,10.165,47.263c-17.821-5.553-36.075-9.206-47.281-10.16C162.4,80.363,165.289,68.151,173.94,59.493z
			 M160.161,168.859c-11.142-0.699-20.208-12.952-20.208-27.317c-0.001-14.356,9.065-26.604,20.227-27.303
			c0.329-0.022,0.658-0.025,0.992-0.025c6.524,0,23.123,2.91,40.24,7.879c-1.265,3.549-2.201,7.216-2.751,10.951
			c-0.411,2.798-0.62,5.66-0.62,8.5c0,2.84,0.209,5.702,0.621,8.505c0.551,3.734,1.486,7.4,2.753,10.951
			c-17.113,4.974-33.715,7.886-40.243,7.886C160.829,168.886,160.492,168.88,160.161,168.859z M203.416,231.28
			c-8.6,3.901-20.822,0.982-29.472-7.669c-8.654-8.66-11.544-20.871-7.643-29.467c11.211-0.954,29.47-4.611,47.29-10.172
			C208.03,201.794,204.366,220.065,203.416,231.28z M228.699,45.706c0.69-11.14,12.939-20.2,27.302-20.2
			c14.365,0,26.613,9.061,27.304,20.231c0.022,0.325,0.026,0.652,0.026,0.977c0,6.532-2.914,23.137-7.889,40.252
			c-3.548-1.265-7.212-2.2-10.941-2.748c-5.609-0.824-11.388-0.824-17.002,0c-3.728,0.55-7.389,1.483-10.938,2.75
			c-4.975-17.114-7.889-33.72-7.889-40.252C228.673,46.39,228.676,46.063,228.699,45.706z M325.463,374.92l-3.246,21.578h-45.756
			c-7.042,0-12.753,5.711-12.753,12.753s5.711,12.753,12.753,12.753h41.921l-9.696,64.491H203.319l-9.696-64.491h2.229
			c7.042,0,12.753-5.711,12.753-12.753s-5.711-12.753-12.753-12.753h-6.063l-3.243-21.578H325.463z M283.304,237.396
			c-0.69,11.138-12.938,20.198-27.302,20.198s-26.613-9.06-27.302-20.198c0-0.004-0.001-0.006-0.001-0.01c0-0.006,0-0.013,0-0.02
			c-0.022-0.328-0.026-0.654-0.026-0.981c0-6.537,2.913-23.144,7.886-40.252c3.548,1.265,7.213,2.2,10.943,2.751
			c2.798,0.411,5.658,0.62,8.5,0.62c2.841,0,5.702-0.209,8.505-0.621c3.728-0.55,7.389-1.484,10.938-2.75
			c4.974,17.108,7.886,33.715,7.886,40.253C283.331,236.713,283.327,237.039,283.304,237.396z M288.11,146.328
			c-0.774,5.248-2.859,10.28-6.007,14.52c-1.933,2.589-4.225,4.88-6.768,6.778c-4.282,3.169-9.315,5.254-14.546,6.026
			c-3.149,0.463-6.434,0.462-9.572,0.001c-5.235-0.773-10.266-2.858-14.509-5.996c-2.584-1.93-4.875-4.221-6.786-6.779
			c-3.169-4.271-5.254-9.302-6.028-14.545c-0.232-1.574-0.348-3.184-0.348-4.789s0.117-3.215,0.347-4.784
			c0.77-5.22,2.839-10.223,5.943-14.431c0.02-0.027,0.038-0.055,0.057-0.082c1.941-2.588,4.234-4.878,6.773-6.773
			c4.282-3.169,9.315-5.253,14.546-6.024c1.579-0.232,3.191-0.349,4.789-0.349c1.598,0,3.21,0.119,4.786,0.349
			c5.234,0.77,10.266,2.854,14.505,5.991c2.579,1.926,4.869,4.212,6.809,6.793c3.159,4.266,5.235,9.287,6.008,14.52
			c0.232,1.574,0.348,3.184,0.348,4.789S288.339,144.76,288.11,146.328z M308.587,51.852c8.6-3.909,20.816-1.019,29.474,7.638
			c8.649,8.655,11.564,20.87,7.676,29.465c-11.205,0.949-29.478,4.61-47.317,10.168C303.977,81.313,307.632,63.064,308.587,51.852z
			 M338.065,223.607c-8.66,8.659-20.876,11.55-29.478,7.64c-0.955-11.217-4.61-29.469-10.167-47.273
			c17.817,5.559,36.074,9.215,47.284,10.169C349.605,202.738,346.717,214.949,338.065,223.607z M351.851,168.86
			c-0.338,0.022-0.675,0.027-1.019,0.027c-6.529,0-23.13-2.913-40.243-7.886c1.266-3.55,2.202-7.219,2.753-10.956
			c0.411-2.798,0.62-5.66,0.62-8.5c0-2.84-0.209-5.702-0.621-8.505c-0.551-3.733-1.486-7.398-2.75-10.946
			c17.117-4.969,33.716-7.879,40.24-7.879c0.335,0,0.664,0.004,0.992,0.025c0.004,0,0.008,0,0.011,0c0.004,0,0.006,0.001,0.01,0.001
			c11.141,0.698,20.207,12.945,20.207,27.302C372.053,155.908,362.988,168.161,351.851,168.86z"/>
	</g>
</g>
</svg>