<?xml version="1.0" encoding="iso-8859-1"?>
<!-- Uploaded to: SVG Repo, www.svgrepo.com, Generator: SVG Repo Mixer Tools -->
<svg fill="#000000" height="800px" width="800px" version="1.1" id="Layer_1" xmlns="http://www.w3.org/2000/svg" xmlns:xlink="http://www.w3.org/1999/xlink" 
	 viewBox="0 0 511.998 511.998" xml:space="preserve">
<g>
	<g>
		<circle cx="235.964" cy="218.326" r="7.554"/>
	</g>
</g>
<g>
	<g>
		<circle cx="276.041" cy="218.326" r="7.554"/>
	</g>
</g>
<g>
	<g>
		<path d="M276.719,237.608c-3.541-2.458-8.409-1.581-10.868,1.963c-0.933,1.344-4.433,3.477-9.853,3.477s-8.92-2.132-9.853-3.477
			c-2.457-3.543-7.322-4.423-10.866-1.964c-3.543,2.458-4.423,7.324-1.964,10.868c4.362,6.286,13.055,10.191,22.684,10.191
			c9.629,0,18.322-3.905,22.683-10.189C281.141,244.933,280.262,240.067,276.719,237.608z"/>
	</g>
</g>
<g>
	<g>
		<path d="M409.752,70.401l-5.833-1.379V57.964l6.873-1.624c12.001-2.836,19.459-14.906,16.623-26.908l-2.883-12.201
			c-1.373-5.814-4.929-10.745-10.011-13.885c-5.082-3.14-11.083-4.112-16.897-2.738L363.333,8.71
			c-4.197,0.992-6.796,5.199-5.804,9.396c0.992,4.197,5.198,6.796,9.395,5.805l34.291-8.103c1.752-0.413,3.564-0.121,5.098,0.827
			c1.534,0.946,2.605,2.434,3.02,4.188l2.883,12.201c0.414,1.754,0.121,3.564-0.826,5.098c-0.948,1.533-2.434,2.605-4.188,3.02
			l-3.283,0.776v-7.192c0-4.313-3.497-7.809-7.809-7.809c-4.313,0-7.809,3.496-7.809,7.809v10.882l-43.536,10.286l-12.751,3.013
			l-174.803,41.303v-8.738c0-4.313-3.496-7.809-7.809-7.809s-7.809,3.497-7.809,7.809v12.428l-17.895,4.228V81.381l43.535-10.286
			c0.001,0,0.002,0,0.003-0.001l90.56-21.397l0.002-0.001l77.891-18.405c4.197-0.991,6.796-5.198,5.804-9.395
			c-0.991-4.197-5.199-6.796-9.395-5.804l-76.098,17.981L114.373,0.608c-1.692-0.4-3.428-0.603-5.155-0.603
			c-10.412,0-19.358,7.084-21.754,17.226l-2.883,12.201c-2.835,12.001,4.622,24.072,16.623,26.908l6.874,1.624v11.058l-5.833,1.379
			c-12.002,2.836-19.46,14.907-16.623,26.91l2.883,12.2c1.373,5.813,4.929,10.746,10.011,13.884
			c2.949,1.822,6.209,2.902,9.561,3.229v129.204L91.535,277.9c-9.469,12.634-6.894,30.617,5.739,40.086
			c4.995,3.744,10.928,5.723,17.157,5.723c8.978,0,17.549-4.285,22.929-11.462l4.231-5.644v174.241
			c-4.169,6.803-6.578,14.798-6.578,23.346c0,4.313,3.496,7.809,7.809,7.809h74.258c4.313,0,7.809-3.496,7.809-7.809v-37.005
			v-37.881l31.108-29.357l31.108,29.357v37.881v37.005c0,4.313,3.496,7.809,7.809,7.809h74.259c0.007,0,0.014,0,0.021,0
			c4.313,0,7.809-3.496,7.809-7.809c0-0.212-0.008-0.424-0.025-0.632c-0.116-8.308-2.508-16.075-6.573-22.711V306.602l4.231,5.645
			c5.38,7.177,13.951,11.462,22.928,11.462c6.23,0,12.163-1.978,17.158-5.723c12.634-9.469,15.208-27.452,5.74-40.087
			l-16.543-22.072V126.622c9.46-0.911,17.346-7.686,19.573-17.112l2.883-12.201c1.373-5.813,0.401-11.815-2.738-16.897
			S415.567,71.774,409.752,70.401z M123.697,65.333v-3.678l7.781,1.839L123.697,65.333z M104.796,41.141
			c-3.62-0.856-5.87-4.497-5.015-8.117l2.883-12.201c0.724-3.061,3.418-5.199,6.554-5.199c0.521,0,1.046,0.062,1.564,0.184
			l111.256,26.289l-56.6,13.374l-41.741-9.863V34.724c0-4.313-3.496-7.809-7.809-7.809s-7.809,3.496-7.809,7.809v7.192
			L104.796,41.141z M106.726,110.107c-1.533-0.948-2.605-2.434-3.02-4.189l-2.884-12.2c-0.855-3.62,1.394-7.263,5.015-8.117
			l2.242-0.529v25.673C107.611,110.582,107.157,110.374,106.726,110.107z M124.863,302.88c-4.267,5.692-12.541,6.866-18.221,2.608
			c-5.742-4.304-6.914-12.478-2.609-18.222l4.045-5.397v11.522c0,4.313,3.496,7.809,7.809,7.809s7.809-3.496,7.809-7.809v-21.67
			c0.064,0.076,0.127,0.151,0.192,0.226c2.829,3.336,6.495,6.077,10.532,7.778c2.039,0.859,4.184,1.422,6.322,1.968
			C140.742,281.694,124.894,302.838,124.863,302.88z M141.591,265.745c-1.39-0.46-2.665-1.126-3.779-1.974
			c-3.363-2.559-5.339-6.665-5.134-10.981c0.252-5.313,3.865-10.078,8.913-11.747V265.745z M141.591,225.074
			c-7.091,1.016-13.428,4.641-17.895,10.001V124.177l17.895-4.227V225.074z M388.301,124.178v110.899
			c-4.467-5.361-10.805-8.986-17.895-10.002V119.949L388.301,124.178z M388.3,61.654v3.678l-7.781-1.839L388.3,61.654z
			 M157.211,116.258l98.787-23.341l98.789,23.341v110.535l-36.384,9.281c0.163-1.839,0.261-3.696,0.261-5.577
			c0-39.457-38.412-69.89-76.781-61.052c-4.203,0.968-6.825,5.16-5.857,9.363c0.968,4.202,5.162,6.823,9.363,5.857
			c29.024-6.687,57.656,16.02,57.656,45.831c0,25.283-21.788,47.048-47.047,47.048c-25.302,0-47.048-21.793-47.048-47.048
			c0-11.898,4.461-23.257,12.559-31.986c2.934-3.161,2.749-8.102-0.412-11.036s-8.103-2.749-11.036,0.412
			c-11.983,12.912-18.022,30.654-16.467,48.185l-36.384-9.28V116.258z M354.787,242.911v26.865l-34.496,8.798
			c-0.008,0.002-3.814-7.387-4.219-8.051c-1.776-2.909-3.77-5.71-5.951-8.331c-0.015-0.018-0.027-0.035-0.042-0.052
			c0.339-0.578,0.663-1.164,0.984-1.751c0.011-0.022,0.023-0.042,0.034-0.061c1.214-2.232,2.372-4.691,3.317-7.119L354.787,242.911z
			 M157.208,242.911l40.373,10.297c0.203,0.516,0.421,1.025,0.635,1.535c0.025,0.059,0.048,0.119,0.073,0.177
			c0.275,0.65,3.809,7,3.628,7.219c-0.014,0.017-0.026,0.033-0.04,0.049c-0.413,0.498-0.811,1.004-1.21,1.511
			c-0.141,0.18-0.282,0.359-0.422,0.541c-3.434,4.453-6.292,9.261-8.541,14.334l-34.496-8.798V242.911z M187.003,293.493
			c-0.859,4.419-1.304,8.953-1.304,13.554v73.342l-13.484,12.725c-6.229,5.877-9.799,14.157-9.799,22.719v47.065
			c-1.8,0.761-3.535,1.647-5.206,2.629V285.894L187.003,293.493z M209.272,496.381H155.44c1.106-1.347,1.77-3.071,1.77-4.949v-5.667
			c0-0.474,1.468-1.672,1.807-2.016c5.447-5.546,13.033-8.753,20.811-8.753h29.444V496.381z M211.721,420.257
			c-1.563,1.475-2.45,3.53-2.45,5.68v33.439h-29.444c-0.598,0-1.195,0.012-1.793,0.035v-43.58c0-4.281,1.786-8.422,4.899-11.36
			l9.227-8.708c0.12,0.021,0.243,0.031,0.364,0.047c0.079,0.01,0.157,0.023,0.237,0.031c0.246,0.023,0.494,0.037,0.746,0.037h44.044
			L211.721,420.257z M201.317,380.261v-73.215c0-5.722,0.88-11.307,2.563-16.609c0.022-0.063,0.054-0.117,0.075-0.18
			c1.771-5.492,4.449-10.687,7.848-15.362c11.637,11.551,27.793,18.265,44.196,18.265c16.344,0,32.597-6.752,44.197-18.266
			c3.399,4.675,6.077,9.87,7.848,15.362c0.02,0.064,0.052,0.118,0.074,0.179c3.367,9.585,2.564,20.059,2.564,30.056
			c0,4.313,3.496,7.809,7.809,7.809s7.809-3.496,7.809-7.809c0-1.971,0.479-26.999-1.304-26.999l29.792-7.598v179.629
			c-1.671-0.981-3.407-1.862-5.206-2.624v-47.068c0-8.562-3.571-16.842-9.799-22.719l-13.484-12.725v-28.659
			c0-4.313-3.497-7.809-7.809-7.809c-4.313,0-7.809,3.496-7.809,7.809v28.532H201.317z M300.275,420.257l-25.83-24.377h44.044
			c0.251,0,0.5-0.015,0.745-0.037c0.081-0.007,0.16-0.021,0.241-0.031c0.121-0.016,0.243-0.026,0.361-0.047l9.227,8.708
			c3.113,2.938,4.899,7.078,4.899,11.36v43.58c-0.597-0.023-1.194-0.035-1.792-0.035h-29.445v-33.439
			C302.725,423.788,301.839,421.733,300.275,420.257z M302.727,496.38v-21.386h29.444c7.695,0,15.22,3.146,20.651,8.59
			c0.369,0.37,1.967,1.663,1.967,2.178v5.669c0,1.878,0.664,3.602,1.77,4.949H302.727z M370.405,103.899V91.471
			c0-4.313-3.496-7.809-7.809-7.809s-7.809,3.497-7.809,7.809v8.738l-64.828-15.318l37.921-8.96l18.679-4.414l41.741,9.863v26.747
			L370.405,103.899z M370.406,241.042c0,0.033,2.391,1.067,2.625,1.208c2.861,1.727,5.058,4.644,5.898,7.935
			c1.697,6.656-2.097,13.432-8.523,15.558C370.406,265.744,370.406,241.044,370.406,241.042z M403.92,293.392V281.87
			c-0.001,0,4.029,5.376,4.044,5.397c6.255,8.344,0.022,20.822-10.398,20.823c-11.341,0.001-20.282-18.353-26.31-26.396l2.139-0.545
			c4.441-1.137,8.586-3.365,12.006-6.414c0.97-0.865,1.871-1.799,2.712-2.791c0.062-0.074,0.126-0.147,0.187-0.222v21.67
			c0,4.313,3.497,7.809,7.809,7.809C400.423,301.201,403.92,297.705,403.92,293.392z M411.175,93.718l-2.883,12.201
			c-0.548,2.319-2.229,4.101-4.373,4.833V85.071l2.242,0.53c1.754,0.414,3.241,1.488,4.189,3.021
			C411.297,90.154,411.589,91.965,411.175,93.718z"/>
	</g>
</g>
</svg>