<?xml version="1.0" ?>
<!-- Uploaded to: SVG Repo, www.svgrepo.com, Generator: SVG Repo Mixer Tools -->
<svg fill="#000000" width="800px" height="800px" viewBox="0 0 128 128" id="Layer_1" version="1.1" xml:space="preserve" xmlns="http://www.w3.org/2000/svg" xmlns:xlink="http://www.w3.org/1999/xlink">
<g>
<path d="M120,36.901c0-0.066-0.025-0.124-0.038-0.187c-0.013-0.066-0.014-0.135-0.039-0.195c-0.027-0.066-0.075-0.117-0.115-0.175   c-0.033-0.048-0.056-0.102-0.097-0.143c-0.049-0.05-0.113-0.081-0.172-0.12c-0.049-0.032-0.09-0.074-0.144-0.097   c-0.061-0.026-0.132-0.029-0.199-0.043c-0.062-0.013-0.118-0.039-0.183-0.04c-0.004,0-0.009,0-0.014,0c0,0,0,0,0,0h-8.672   c-0.014-0.001-0.025-0.009-0.039-0.009c-0.016,0-0.029,0.008-0.045,0.009H17.755c-0.015-0.001-0.028-0.009-0.044-0.009   c-0.014,0-0.025,0.008-0.039,0.009H9c0,0,0,0,0,0c-0.005,0-0.009,0-0.014,0c-0.065,0.001-0.122,0.027-0.183,0.04   c-0.067,0.014-0.137,0.017-0.199,0.043c-0.054,0.023-0.095,0.065-0.144,0.097c-0.059,0.039-0.123,0.069-0.172,0.12   c-0.041,0.041-0.064,0.096-0.097,0.143c-0.04,0.058-0.087,0.109-0.115,0.175c-0.025,0.06-0.027,0.13-0.039,0.195   C8.025,36.777,8,36.835,8,36.901c0,0.002,0.001,0.004,0.001,0.007C8.001,36.91,8,36.913,8,36.915   c0.419,30.431,25.541,55.188,56,55.188s55.581-24.758,56-55.188c0-0.002-0.001-0.005-0.001-0.007   C119.999,36.906,120,36.904,120,36.901z M109.222,37.901C108.19,61.881,88.125,81.222,64,81.222s-44.19-19.34-45.222-43.32H109.222   z M64,90.104c-29.031,0-53.018-23.327-53.96-52.202h6.737C17.81,62.979,38.78,83.222,64,83.222s46.19-20.242,47.224-45.32h6.737   C117.018,66.776,93.031,90.104,64,90.104z"/>
<path d="M76.604,47.816c0.015,0,0.029,0,0.043,0c0.587-0.012,1.136-0.254,1.546-0.683c0.414-0.432,0.633-0.996,0.618-1.59   c-0.023-0.942-0.563-1.798-1.01-2.35c-0.294-0.361-0.73-0.568-1.196-0.568c0,0-0.001,0-0.001,0c-0.467,0-0.904,0.208-1.198,0.571   c-0.46,0.567-1.009,1.446-1.009,2.412c0,0.598,0.235,1.156,0.661,1.575C75.474,47.593,76.021,47.816,76.604,47.816z M76.604,44.976   c0.13,0.235,0.204,0.451,0.208,0.619c0.002,0.076-0.04,0.131-0.064,0.156c-0.023,0.024-0.071,0.064-0.139,0.065   c-0.065,0.015-0.122-0.031-0.151-0.06c-0.028-0.027-0.062-0.076-0.062-0.147C76.396,45.438,76.47,45.218,76.604,44.976z"/>
<path d="M97.229,47.816c0.015,0,0.029,0,0.043,0c0.587-0.012,1.136-0.254,1.546-0.683c0.414-0.432,0.633-0.996,0.618-1.59   c-0.023-0.942-0.563-1.798-1.01-2.35c-0.294-0.361-0.73-0.568-1.196-0.568c0,0-0.001,0-0.001,0c-0.467,0-0.904,0.208-1.198,0.571   c-0.46,0.567-1.009,1.446-1.009,2.412c0,0.598,0.235,1.156,0.661,1.575C96.099,47.593,96.646,47.816,97.229,47.816z M97.229,44.976   c0.13,0.235,0.204,0.451,0.208,0.619c0.002,0.076-0.04,0.131-0.064,0.156c-0.023,0.024-0.071,0.064-0.139,0.065   c-0.07,0.015-0.123-0.031-0.151-0.06c-0.028-0.027-0.062-0.076-0.062-0.147C97.021,45.438,97.095,45.218,97.229,44.976z"/>
<path d="M53.688,47.816c0.014,0,0.028,0,0.042,0c0.587-0.012,1.136-0.254,1.546-0.683c0.414-0.432,0.633-0.996,0.618-1.59   c-0.023-0.942-0.563-1.798-1.01-2.35c-0.589-0.724-1.806-0.723-2.396,0.003c-0.46,0.568-1.008,1.447-1.008,2.412   c0,0.598,0.235,1.157,0.661,1.575C52.557,47.593,53.105,47.816,53.688,47.816z M53.688,44.976c0.13,0.235,0.204,0.45,0.208,0.619   c0.002,0.076-0.039,0.131-0.064,0.156c-0.023,0.024-0.071,0.064-0.139,0.065c-0.086-0.01-0.122-0.032-0.15-0.06   s-0.062-0.075-0.062-0.147C53.48,45.438,53.554,45.218,53.688,44.976z"/>
<path d="M65.146,61.566c0.015,0,0.029,0,0.043,0c0.587-0.012,1.136-0.254,1.546-0.683c0.414-0.432,0.633-0.996,0.618-1.59   c-0.023-0.942-0.562-1.798-1.01-2.35c-0.589-0.724-1.807-0.723-2.396,0.003c-0.46,0.568-1.009,1.447-1.009,2.412   c0,0.598,0.235,1.156,0.661,1.575C64.016,61.343,64.563,61.566,65.146,61.566z M65.146,58.726c0.129,0.235,0.203,0.45,0.208,0.619   c0.002,0.076-0.039,0.131-0.064,0.156c-0.023,0.024-0.071,0.064-0.139,0.065c-0.072-0.005-0.123-0.031-0.151-0.06   c-0.028-0.027-0.062-0.076-0.062-0.147C64.938,59.189,65.012,58.968,65.146,58.726z"/>
<path d="M85.771,61.566c0.015,0,0.029,0,0.043,0c0.587-0.012,1.136-0.254,1.546-0.683c0.414-0.432,0.633-0.996,0.618-1.59   c-0.023-0.942-0.562-1.798-1.01-2.35c-0.589-0.724-1.807-0.723-2.396,0.003c-0.46,0.568-1.009,1.447-1.009,2.412   c0,0.598,0.235,1.156,0.661,1.575C84.641,61.343,85.188,61.566,85.771,61.566z M85.771,58.726c0.129,0.235,0.203,0.45,0.208,0.619   c0.002,0.076-0.039,0.131-0.064,0.156c-0.023,0.024-0.071,0.064-0.139,0.065c-0.078-0.005-0.123-0.031-0.151-0.06   c-0.028-0.027-0.062-0.076-0.062-0.147C85.563,59.189,85.637,58.968,85.771,58.726z"/>
<path d="M76.601,74.024c0.016,0,0.031,0,0.046,0c0.587-0.012,1.136-0.254,1.546-0.683c0.414-0.432,0.633-0.996,0.618-1.59   c-0.023-0.942-0.563-1.798-1.01-2.35c-0.294-0.361-0.73-0.569-1.196-0.569c0,0-0.001,0-0.001,0   c-0.467,0.001-0.904,0.209-1.198,0.572c-0.46,0.567-1.009,1.446-1.009,2.412c0,0.598,0.235,1.158,0.663,1.577   C75.475,73.802,76.021,74.024,76.601,74.024z M76.604,71.184c0.13,0.235,0.204,0.451,0.208,0.619   c0.002,0.076-0.04,0.131-0.064,0.156c-0.023,0.024-0.071,0.064-0.14,0.065c-0.063-0.001-0.121-0.031-0.149-0.059   c-0.029-0.028-0.063-0.076-0.063-0.148C76.396,71.646,76.47,71.426,76.604,71.184z"/>
<path d="M53.684,74.024c0.016,0,0.031,0,0.046,0c0.587-0.012,1.136-0.254,1.546-0.683c0.414-0.432,0.633-0.996,0.618-1.59   c-0.023-0.942-0.563-1.798-1.01-2.35c-0.589-0.724-1.806-0.723-2.396,0.003c-0.46,0.568-1.008,1.447-1.008,2.412   c0,0.599,0.235,1.158,0.663,1.577C52.558,73.802,53.104,74.024,53.684,74.024z M53.688,71.184c0.13,0.235,0.204,0.45,0.208,0.619   c0.002,0.076-0.039,0.131-0.064,0.156c-0.023,0.024-0.071,0.064-0.141,0.065c-0.067-0.01-0.121-0.031-0.148-0.059   c-0.029-0.027-0.063-0.076-0.063-0.148C53.48,71.646,53.554,71.426,53.688,71.184z"/>
<path d="M42.229,61.566c0.015,0,0.029,0,0.043,0c0.587-0.012,1.136-0.254,1.546-0.683c0.414-0.432,0.633-0.996,0.618-1.59   c-0.023-0.942-0.563-1.798-1.01-2.35c-0.294-0.361-0.73-0.568-1.196-0.568c0,0-0.001,0-0.001,0c-0.467,0-0.904,0.208-1.198,0.571   c-0.46,0.567-1.009,1.446-1.009,2.412c0,0.598,0.235,1.156,0.661,1.575C41.099,61.343,41.646,61.566,42.229,61.566z M42.229,58.726   c0.13,0.235,0.204,0.451,0.208,0.619c0.002,0.076-0.04,0.131-0.064,0.156c-0.023,0.024-0.071,0.064-0.139,0.065   c-0.064-0.005-0.122-0.031-0.151-0.06c-0.028-0.027-0.062-0.076-0.062-0.147C42.021,59.188,42.095,58.968,42.229,58.726z"/>
<path d="M31.968,43.194c-0.589-0.725-1.806-0.722-2.396,0.003c-0.46,0.568-1.009,1.447-1.009,2.412   c0,0.598,0.235,1.156,0.661,1.575c0.417,0.408,0.964,0.632,1.546,0.632c0.015,0,0.029,0,0.043,0   c0.587-0.012,1.136-0.254,1.546-0.683c0.414-0.432,0.633-0.996,0.618-1.59C32.954,44.602,32.416,43.746,31.968,43.194z    M30.915,45.751c-0.023,0.024-0.071,0.064-0.139,0.065c-0.072,0.015-0.123-0.031-0.151-0.06c-0.028-0.027-0.062-0.076-0.062-0.147   c0-0.17,0.074-0.392,0.208-0.634c0.129,0.235,0.203,0.45,0.208,0.619C30.98,45.671,30.939,45.726,30.915,45.751z"/>
</g>
</svg>